<svg width="446" height="360" viewBox="0 0 446 360" fill="none" xmlns="http://www.w3.org/2000/svg">
<path d="M172.984 172.205L176.72 171.82L178.673 172.016L179.601 172.536L180.291 172.016L181.396 170.155L182.043 169.825L182.696 170.088L183.594 171.991L184.168 172.181L184.888 171.698L184.845 173.191L184.589 173.57L183.96 173.613L183.636 173.986L182.348 177.976L182.3 181.415L182.611 182.756L182.275 187.039L181.066 190.264L180.138 195.129L179.656 195.35L178.997 197.43L178.362 198.434L176.054 201.261L171.806 203.489L168.979 204.138L167.203 204.872L160.408 205.943L159.553 206.224L154.999 206.133L153.882 206.261L153.015 205.973L151.825 202.969L152.106 202.13L151.648 183.643L151.868 175.284L152.075 175.051L153.711 174.849L160.445 174.562L161.519 174.947L167.129 179.904L167.703 179.757L172.984 172.205Z" fill="#2196F3"/>
</svg>
