<svg width="88" height="31" viewBox="0 0 88 31" fill="none" xmlns="http://www.w3.org/2000/svg">
<path d="M72.1613 30.6914C68.725 30.6914 65.4409 29.5626 62.7876 27.457C60.1342 29.5409 56.8502 30.6914 53.4139 30.6914C49.9776 30.6914 46.6935 29.5626 44.0401 27.457C41.3868 29.5409 38.1027 30.6914 34.6664 30.6914C31.2301 30.6914 27.946 29.5626 25.2927 27.457C22.6393 29.5409 19.3552 30.6914 15.9189 30.6914C11.9172 30.6914 8.15462 29.1719 5.30552 26.3933C2.41293 23.6147 0.803523 19.9027 0.738276 15.9519C0.67303 11.9794 2.15195 8.22397 4.91405 5.33685C7.65439 2.47144 11.3734 0.821652 15.3752 0.691406H15.4405H16.3974C19.6597 0.799945 22.7481 1.92874 25.2709 3.90414C27.772 1.92874 30.8604 0.799945 34.1227 0.691406L34.1879 2.3846V0.691406H35.1449C38.4072 0.799945 41.4955 1.92874 44.0184 3.90414C46.5412 1.92874 49.6078 0.799945 52.8919 0.691406H52.9571H53.9141C57.1764 0.799945 60.2647 1.92874 62.7876 3.90414C65.2887 1.92874 68.377 0.799945 71.6611 0.691406L71.7263 2.3846V0.691406H72.6833C76.6633 0.821652 80.3824 2.47144 83.1445 5.33685C85.9066 8.20226 87.3855 11.9794 87.3202 15.9302C87.255 19.9027 85.6456 23.6147 82.7965 26.3933C79.9039 29.1719 76.1414 30.6914 72.1613 30.6914ZM65.267 25.004C67.2026 26.415 69.595 27.2616 72.1613 27.2616C78.4902 27.2616 83.7317 22.1603 83.8187 15.9085C83.9274 9.65667 78.8817 4.40342 72.5746 4.16463H71.7481C69.334 4.25146 67.1156 5.07636 65.2887 6.40052C67.4636 9.11398 68.5945 12.457 68.551 15.9519C68.464 19.2732 67.3331 22.4208 65.267 25.004ZM46.5195 25.004C48.4551 26.415 50.8475 27.2616 53.4139 27.2616C55.9802 27.2616 58.3508 26.415 60.2865 25.004C58.2421 22.4425 57.0894 19.2732 57.0242 15.9519C56.9589 12.457 58.1116 9.11398 60.2865 6.40052C58.4596 5.07636 56.2412 4.25146 53.8271 4.16463H53.0006C50.5865 4.25146 48.3681 5.07636 46.5412 6.40052C48.7161 9.11398 49.8471 12.457 49.8036 15.9519C49.7166 19.2732 48.5639 22.4208 46.5195 25.004ZM27.7503 25.004C29.6859 26.415 32.0783 27.2616 34.6446 27.2616C37.211 27.2616 39.5816 26.415 41.5173 25.004C39.4729 22.4425 38.3202 19.2732 38.255 15.9519C38.1897 12.457 39.3424 9.11398 41.5173 6.40052C39.6904 5.07636 37.472 4.25146 35.0579 4.16463H34.2314C31.8173 4.25146 29.5989 5.07636 27.772 6.40052C29.9469 9.11398 31.0779 12.457 31.0344 15.9519C30.9474 19.2732 29.7947 22.4208 27.7503 25.004ZM15.4622 4.14293C9.15506 4.36 4.10934 9.63497 4.21808 15.8868C4.32683 22.1386 9.54654 27.2399 15.8754 27.2399C18.4418 27.2399 20.8124 26.3933 22.7481 24.9823C20.7037 22.4208 19.551 19.2515 19.4857 15.9302C19.4205 12.4353 20.5732 9.09227 22.7481 6.37882C20.9212 5.05465 18.7028 4.22976 16.2887 4.14293H15.4622ZM44.0184 8.85349C42.5395 10.8289 41.6913 13.2601 41.7348 15.8868C41.7783 18.3615 42.6265 20.6625 44.0184 22.5293C45.4103 20.6625 46.2585 18.3615 46.302 15.8868C46.3455 13.2601 45.4756 10.8289 44.0184 8.85349ZM25.2492 8.85349C23.7703 10.8289 22.9221 13.2601 22.9655 15.8868C23.009 18.3615 23.8572 20.6625 25.2492 22.5293C26.6411 20.6625 27.4893 18.3615 27.5328 15.8868C27.5763 13.2601 26.7281 10.8289 25.2492 8.85349ZM62.7659 8.85349C61.2869 10.8289 60.4387 13.2601 60.4822 15.8868C60.5257 18.3615 61.3739 20.6625 62.7659 22.5293C64.1578 20.6625 65.006 18.3615 65.0495 15.8868C65.1147 13.2601 64.2448 10.8289 62.7659 8.85349Z" fill="white"/>
</svg>
