<svg width="20" height="20" viewBox="0 0 20 20" fill="none" xmlns="http://www.w3.org/2000/svg">
<path d="M1.875 6.875V6.90078C1.87408 7.06184 1.81593 7.21732 1.71094 7.33945V7.34141C1.5 7.59063 1.25 8.03672 1.25 8.75C1.25 9.39648 1.45703 9.85273 1.70625 10.1527C1.81559 10.2858 1.87525 10.4528 1.875 10.625C1.875 10.9565 2.0067 11.2745 2.24112 11.5089C2.47554 11.7433 2.79348 11.875 3.125 11.875H3.4375C3.52038 11.875 3.59987 11.8421 3.65847 11.7835C3.71708 11.7249 3.75 11.6454 3.75 11.5625V5.9375C3.75 5.85462 3.71708 5.77513 3.65847 5.71653C3.59987 5.65792 3.52038 5.625 3.4375 5.625H3.125C2.79348 5.625 2.47554 5.7567 2.24112 5.99112C2.0067 6.22554 1.875 6.54348 1.875 6.875Z" fill="#F2F4F7"/>
<path d="M17.6635 7.28717L17.6271 7.28053C17.5914 7.27371 17.5592 7.25465 17.536 7.22662C17.5129 7.1986 17.5002 7.16337 17.5002 7.12701V2.42193C17.5002 1.92818 17.1725 1.48443 16.6842 1.31568C16.2186 1.15514 15.7334 1.28599 15.4467 1.64889C14.8367 2.37725 14.1662 3.05271 13.4424 3.66803C12.5193 4.44928 11.6361 5.00592 10.8252 5.32076C10.7661 5.34331 10.7152 5.38328 10.6792 5.43538C10.6433 5.48749 10.6241 5.54927 10.624 5.61256V11.6797C10.6241 11.8019 10.66 11.9214 10.7273 12.0234C10.7946 12.1254 10.8903 12.2054 11.0025 12.2536C11.758 12.5774 12.5744 13.1063 13.4244 13.827C14.1537 14.4479 14.829 15.1295 15.4432 15.8645C15.5415 15.9879 15.6671 16.087 15.8101 16.1538C15.9531 16.2207 16.1096 16.2536 16.2674 16.2501C16.4061 16.2494 16.5438 16.2265 16.6752 16.1821C17.1764 16.0157 17.5002 15.5879 17.5002 15.0938V10.3723C17.5002 10.3354 17.5133 10.2998 17.5371 10.2716C17.5609 10.2434 17.5939 10.2246 17.6303 10.2184L17.6635 10.2129C18.0393 10.111 18.7502 9.67467 18.7502 8.75006C18.7502 7.82545 18.0393 7.38912 17.6635 7.28717Z" fill="#F2F4F7"/>
<path d="M9.375 12.5V5.9375C9.375 5.85462 9.34208 5.77513 9.28347 5.71653C9.22487 5.65792 9.14538 5.625 9.0625 5.625H5.3125C5.22962 5.625 5.15013 5.65792 5.09153 5.71653C5.03292 5.77513 5 5.85462 5 5.9375V17.8125C5 18.0611 5.09877 18.2996 5.27459 18.4754C5.4504 18.6512 5.68886 18.75 5.9375 18.75H7.98633C8.18108 18.7516 8.37362 18.7086 8.54919 18.6243C8.72477 18.54 8.87871 18.4167 8.99922 18.2637C9.12278 18.1053 9.20588 17.9192 9.24134 17.7215C9.2768 17.5237 9.26355 17.3204 9.20273 17.1289C9.13945 16.9266 9.06094 16.6992 8.97734 16.4574C8.66836 15.5629 8.26094 15.0094 8.15234 13.7496C8.47903 13.7425 8.78994 13.6077 9.01847 13.3741C9.24699 13.1405 9.37498 12.8268 9.375 12.5Z" fill="#F2F4F7"/>
</svg>
