<svg width="87" height="56" viewBox="0 0 87 56" fill="none" xmlns="http://www.w3.org/2000/svg">
<g clip-path="url(#clip0_1370_7372)">
<mask id="mask0_1370_7372" style="mask-type:alpha" maskUnits="userSpaceOnUse" x="0" y="0" width="80" height="50">
<path d="M0.640625 0H79.8781V49.3621H0.640625V0Z" fill="white"/>
</mask>
<g mask="url(#mask0_1370_7372)">
<path fill-rule="evenodd" clip-rule="evenodd" d="M78.3103 48.4795C51.9073 49.7001 26.3344 49.7869 2.20882 47.8993C1.6293 47.8943 1.16289 47.3826 1.16778 46.7555C2.10618 28.443 1.01696 18.3772 0.640625 1.58883C0.645512 0.961736 1.1189 0.457679 1.69843 0.461175C24.9072 -0.421801 51.5505 0.0535932 78.6714 1.12253C79.2509 1.12673 79.7166 1.63847 79.7116 2.26557C80.3421 26.6826 78.9471 29.3708 79.3688 47.3519C79.364 47.9789 78.8898 48.4837 78.3103 48.4795Z" fill="#DFF4FF"/>
</g>
<path fill-rule="evenodd" clip-rule="evenodd" d="M36.0126 41.6314C28.4209 37.7248 21.1958 32.6268 15.2009 26.5202C9.29739 20.5057 5.38178 13.042 1.59815 5.59509C1.91514 20.1163 2.03104 29.9178 1.16801 46.7559C1.16316 47.3829 1.62957 47.8948 2.20909 47.8996C19.9361 49.2867 38.4459 49.6048 57.4919 49.193C50.1026 47.6332 42.8942 45.1724 36.0126 41.6314Z" fill="#C7EBFF"/>
<path fill-rule="evenodd" clip-rule="evenodd" d="M0.893298 2.72389C13.8572 10.628 27.5568 17.2255 40.7538 24.7186C42.1237 25.496 43.3567 23.3833 41.9869 22.6052C28.7906 15.1129 15.0908 8.51461 2.12705 0.611172C0.779489 -0.209583 -0.450073 1.90523 0.893298 2.72389Z" fill="#92CDFA"/>
<path fill-rule="evenodd" clip-rule="evenodd" d="M41.9868 24.7199C54.6273 18.1063 67.0325 10.8098 79.2248 3.4041C80.5682 2.58894 79.3414 0.47133 77.9912 1.29138C65.7989 8.69635 53.3935 15.9944 40.7531 22.6073C39.3587 23.3364 40.5932 25.4491 41.9868 24.7199Z" fill="#92CDFA"/>
<path fill-rule="evenodd" clip-rule="evenodd" d="M25.5453 20.6053C17.6393 28.8828 9.73275 37.1609 1.82614 45.4384C0.739708 46.5758 2.46431 48.309 3.55422 47.1679C11.4608 38.8905 19.3668 30.6131 27.2741 22.3355C28.3605 21.1975 26.6353 19.4644 25.5453 20.6053Z" fill="#92CDFA"/>
<path fill-rule="evenodd" clip-rule="evenodd" d="M49.1343 20.6306C58.0679 30.4252 67.7704 39.6975 77.417 48.7831C78.5613 49.8619 80.2929 48.1343 79.1443 47.0528C69.4991 37.9672 59.796 28.6949 50.8631 18.8997C49.7997 17.7343 48.0751 19.4694 49.1343 20.6306Z" fill="#92CDFA"/>
<mask id="mask1_1370_7372" style="mask-type:alpha" maskUnits="userSpaceOnUse" x="0" y="0" width="80" height="50">
<path d="M0 0.759521H79.4602V49.3757H0V0.759521Z" fill="white"/>
</mask>
<g mask="url(#mask1_1370_7372)">
<path fill-rule="evenodd" clip-rule="evenodd" d="M0.147472 1.94005C-0.325919 16.3424 0.525906 30.7476 0.143283 45.1526C0.0113198 50.1283 3.92065 49.1809 7.63586 49.2194C23.4345 49.3803 39.235 49.3977 55.0336 49.3571C62.7825 49.3376 70.5348 49.3299 78.2808 49.1411C79.8504 49.1026 79.8567 46.6558 78.2808 46.6943C63.7963 47.0479 49.2944 46.941 34.807 46.9109C27.4414 46.8962 20.076 46.8684 12.7099 46.8145C10.2975 46.7977 7.88443 46.7795 5.47138 46.748C5.0727 46.7424 2.54306 47.0207 2.2519 46.6796C2.23165 46.6564 2.65826 43.5035 2.66804 43.1806C2.73158 41.1993 2.75462 39.2159 2.76439 37.2333C2.78185 33.4531 2.72599 29.6738 2.65826 25.8944C2.51583 17.9091 2.32871 9.92529 2.59124 1.94005C2.6429 0.364964 0.199141 0.36706 0.147472 1.94005Z" fill="#92CDFA"/>
</g>
<mask id="mask2_1370_7372" style="mask-type:alpha" maskUnits="userSpaceOnUse" x="66" y="34" width="21" height="21">
<path d="M66.1367 34.3146H86.9994V54.9267H66.1367V34.3146Z" fill="white"/>
</mask>
<g mask="url(#mask2_1370_7372)">
<path fill-rule="evenodd" clip-rule="evenodd" d="M84.955 39.1435C82.9546 36.2982 79.7065 34.2903 76.2168 34.3148C69.5893 34.3616 64.4169 42.0979 66.6743 48.2487C68.0833 52.0868 71.9814 54.5568 75.9605 54.8875C77.3255 55.0007 78.7136 54.8722 80.0242 54.4694C80.2112 54.4121 80.397 54.3492 80.58 54.2807C83.7561 53.0998 86.1754 50.4048 86.8318 47.0483C87.3722 44.2862 86.5699 41.4415 84.955 39.1435Z" fill="#2C8CF4"/>
</g>
<path fill-rule="evenodd" clip-rule="evenodd" d="M74.5675 43.4276C75.7594 42.5957 77.0343 41.8162 78.1005 40.8206C79.2526 39.7439 77.5217 38.0165 76.3724 39.0904C75.4584 39.9439 74.356 40.6011 73.3337 41.3149C72.7933 41.6924 72.544 42.3859 72.8953 42.9886C73.2088 43.5248 74.0236 43.8072 74.5675 43.4276Z" fill="white"/>
<path fill-rule="evenodd" clip-rule="evenodd" d="M76.0155 39.956C75.9449 43.3719 76.0022 46.787 76.0489 50.2021C76.07 51.7751 78.5137 51.7799 78.4928 50.2021C78.4459 46.787 78.3888 43.3719 78.4592 39.956C78.492 38.3809 76.0483 38.3809 76.0155 39.956Z" fill="white"/>
</g>
<defs>
<clipPath id="clip0_1370_7372">
<rect width="87" height="56" fill="white"/>
</clipPath>
</defs>
</svg>
