<svg width="25" height="25" viewBox="0 0 25 25" fill="none" xmlns="http://www.w3.org/2000/svg">
<g clip-path="url(#clip0_198_5562)">
<path d="M12.2149 0.945299L2.02739 6.19725C1.80473 6.32811 1.74028 6.52342 1.74223 6.80663L1.76176 7.16014L12.5176 12.6758L23.2481 7.24803C23.2481 7.24803 23.2598 7.19335 23.2598 7.00194C23.2598 7.00194 23.25 6.74999 23.1934 6.6328C23.1309 6.49999 22.9981 6.38085 22.9122 6.30858C22.6836 6.11913 22.4551 5.95116 22.0664 5.73241C16.4942 2.58202 12.8301 0.958971 12.8301 0.958971C12.5938 0.87108 12.3985 0.83983 12.2149 0.945299Z" fill="#DEA66C"/>
<path d="M1.90234 18.7813C2.49609 19.1739 3.58008 19.6895 4.67578 20.2833C7.22266 21.6622 10.4414 23.338 12.043 23.9962C12.2598 24.086 12.3887 24.129 12.5391 24.1368C12.6504 24.1427 12.834 24.0684 12.834 24.0684C12.834 24.0684 12.5352 13.2891 12.5176 12.6739C12.5 12.0724 12.248 11.8731 12.0254 11.7286C11.6777 11.5059 10.9238 11.1583 10.9238 11.1583C10.9238 11.1583 8.2832 9.84579 5.64648 8.46298C4.39258 7.80477 3.33398 7.13094 2.19531 6.57626C1.98633 6.47665 1.74023 6.60165 1.74023 6.83602V18.5157C1.74023 18.627 1.80859 18.7208 1.90234 18.7813Z" fill="#B38251"/>
<path d="M22.9649 18.8496L12.8555 24.0625C12.6934 24.1465 12.5001 24.0293 12.5001 23.8457L12.5176 12.6778C12.5176 12.5703 12.4844 12.334 12.4512 12.2403C12.3594 11.9668 12.5587 11.8575 12.6485 11.8125L22.6758 6.64847C22.9415 6.51175 23.2598 6.70511 23.2598 7.00394V18.3692C23.2598 18.5703 23.1465 18.7559 22.9649 18.8496Z" fill="#966239"/>
<path opacity="0.5" d="M18.4492 9.29489C18.4492 9.29489 12.9082 12.1289 12.8184 12.3691C12.7285 12.6074 17.166 10.4746 17.6856 10.207C18.2734 9.90426 22.8906 7.43551 22.8906 7.16403C22.8926 6.94137 18.4492 9.29489 18.4492 9.29489Z" fill="#212121"/>
<g opacity="0.5">
<path d="M2.50195 18.1348C3.22266 18.498 3.9375 18.873 4.82812 19.3281V18.9805C3.94141 18.5273 3.22461 18.1543 2.50195 17.7871V18.1348ZM4.01953 18.293C4.22266 18.3965 4.32422 18.4492 4.51562 18.5469C4.51758 17.9414 4.51758 17.6387 4.51953 17.0332C4.32812 16.9355 4.22852 16.8848 4.02734 16.7812C4.02344 17.3867 4.02148 17.6875 4.01953 18.293ZM2.75781 17.6445C2.92578 17.7305 3.01953 17.7793 3.21094 17.877L3.2207 16.3691C3.02734 16.2695 2.93359 16.2227 2.76367 16.1328C2.76172 16.7383 2.75977 17.041 2.75781 17.6445Z" fill="#212121"/>
<path d="M3.70117 16.7949C4.16406 17.0312 4.41016 17.1582 4.81836 17.3652C4.61523 16.9961 4.50391 16.8086 4.28125 16.4297C4.05273 16.5781 3.93359 16.6504 3.70117 16.7949ZM2.50195 16.1797C2.84766 16.3594 3.08008 16.4785 3.53711 16.7129C3.31055 16.332 3.19727 16.1426 2.98828 15.7695C2.77539 15.9238 2.67578 16.0039 2.50195 16.1797Z" fill="#212121"/>
</g>
<g opacity="0.5">
<path d="M6.21289 19.8047C6.375 19.8887 6.45898 19.9336 6.62109 20.0176C6.60938 19.2988 6.60352 18.9395 6.58984 18.2207C6.43359 18.1387 6.35547 18.0977 6.19922 18.0176C6.20508 18.7324 6.20703 19.0898 6.21289 19.8047Z" fill="#212121"/>
<path d="M5.61719 19.6777C6.21094 19.9902 6.67188 20.2246 7.24219 20.5293C7.23828 20.3242 7.08008 20.0762 6.86523 19.9609C6.5293 19.7832 6.33789 19.6855 5.99805 19.5078C5.7793 19.3965 5.61719 19.4766 5.61719 19.6777ZM6.74805 17.6484L6.99805 18.1777C6.91992 18.3437 6.87891 18.4277 6.79687 18.5918C6.86719 18.5859 6.90234 18.584 6.97266 18.5781C7.06641 18.4531 7.11328 18.3906 7.20313 18.2656C7.12109 18.0723 7.07812 17.9746 6.99219 17.7812C7.23047 17.9121 7.34766 17.9785 7.56445 18.1055C7.56445 18.8047 7.10742 19.1133 6.41992 18.7539C5.73242 18.3965 5.27734 17.5977 5.27734 16.8965C5.78906 17.1523 6.13281 17.3203 6.74805 17.6484Z" fill="#212121"/>
</g>
<path d="M19.6758 8.10352C19.5781 8.03125 9.0918 2.55273 9.0918 2.55273L5.83789 4.23438L16.5898 9.7793L16.5957 9.78516L19.7422 8.17383C19.7422 8.17383 19.7363 8.1582 19.7188 8.13867C19.7051 8.12695 19.6816 8.10938 19.6758 8.10352Z" fill="#FFE0B2"/>
<path d="M19.7266 8.15039C17.9453 9.02734 16.5898 9.7793 16.5898 9.7793C16.6348 9.82422 16.6367 9.88281 16.6367 9.91211C16.6309 10.1387 16.627 10.3184 16.6211 10.543C16.5937 11.7051 16.5781 12.8691 16.5391 14.0312C16.6699 13.9531 16.8281 14.125 16.9473 14.0312C17.1309 13.8867 17.5215 13.25 17.5801 13.2305C17.6582 13.2051 17.7422 13.2246 17.8223 13.2207C18.1738 13.2012 18.9609 12.4844 19.1289 12.4512C19.291 12.4199 19.8262 12.5234 19.8262 12.5234C19.8262 12.5234 19.7891 8.97852 19.7754 8.38281C19.7715 8.17187 19.7266 8.15039 19.7266 8.15039Z" fill="#BF9F85"/>
</g>
<defs>
<clipPath id="clip0_198_5562">
<rect width="25" height="25" fill="white"/>
</clipPath>
</defs>
</svg>
