<svg width="152" height="152" viewBox="0 0 152 152" fill="none" xmlns="http://www.w3.org/2000/svg">
<rect x="12" y="12" width="128" height="128" rx="64" fill="#00FF1A" fill-opacity="0.1"/>
<rect x="12" y="12" width="128" height="128" rx="64" stroke="#ECFDF3" stroke-width="22.8571"/>
<path d="M76 50C61.6637 50 50 61.6637 50 76C50 90.3362 61.6637 102 76 102C90.3362 102 102 90.3362 102 76C102 61.6637 90.3362 50 76 50ZM89.5312 67.2862L72.7312 87.2862C72.547 87.5057 72.3177 87.6831 72.0589 87.8062C71.8001 87.9294 71.5178 87.9954 71.2312 88H71.1975C70.9172 87.9999 70.64 87.9409 70.384 87.8267C70.1279 87.7126 69.8987 87.5459 69.7112 87.3375L62.5112 79.3375C62.3284 79.1436 62.1862 78.915 62.0929 78.6653C61.9996 78.4156 61.9572 78.1498 61.9681 77.8835C61.9791 77.6171 62.0431 77.3557 62.1565 77.1145C62.27 76.8733 62.4305 76.6571 62.6286 76.4788C62.8267 76.3005 63.0585 76.1636 63.3103 76.0762C63.5621 75.9887 63.8288 75.9525 64.0948 75.9696C64.3608 75.9867 64.6207 76.0568 64.8592 76.1758C65.0978 76.2948 65.3101 76.4603 65.4837 76.6625L71.145 82.9525L86.4687 64.7137C86.8125 64.3163 87.2988 64.0702 87.8226 64.0284C88.3463 63.9867 88.8655 64.1528 89.2678 64.4907C89.6701 64.8287 89.9233 65.3114 89.9726 65.8345C90.0219 66.3576 89.8634 66.8791 89.5312 67.2862Z" fill="#1CC500"/>
</svg>
