<svg width="120" height="25" viewBox="0 0 120 25" fill="none" xmlns="http://www.w3.org/2000/svg">
<mask id="mask0_593_7579" style="mask-type:luminance" maskUnits="userSpaceOnUse" x="0" y="0" width="120" height="25">
<path d="M119.738 0.88623H0.778625V24.4965H119.738V0.88623Z" fill="white"/>
</mask>
<g mask="url(#mask0_593_7579)">
<path fill-rule="evenodd" clip-rule="evenodd" d="M88.2573 0.854492H70.9403V24.2995H77.2555V4.0104H84.4171C86.1256 4.0104 87.5308 5.38766 87.5308 7.07973V24.2995H93.846V6.35568C93.838 3.33357 91.3231 0.854492 88.2573 0.854492Z" fill="white"/>
<path fill-rule="evenodd" clip-rule="evenodd" d="M113.965 0.854492H102.229C99.1632 0.854492 96.6483 3.33357 96.6483 6.35568V18.7983C96.6483 21.8204 99.1632 24.2995 102.229 24.2995H113.965C117.039 24.2995 119.546 21.8204 119.546 18.7983V6.35568C119.554 3.33357 117.039 0.854492 113.965 0.854492ZM110.125 4.0104C111.834 4.0104 113.239 5.38766 113.239 7.07973V18.0821C113.239 19.7663 111.842 21.1515 110.125 21.1515H106.077C104.369 21.1515 102.964 19.7742 102.964 18.0821V7.07973C102.964 5.39553 104.361 4.0104 106.077 4.0104H110.125Z" fill="white"/>
<path fill-rule="evenodd" clip-rule="evenodd" d="M31.9154 0.854492H45.8231V4.0104H35.7557C34.0471 4.0104 32.65 5.38766 32.65 7.07973V7.67786C32.65 9.36206 34.0471 10.7472 35.7557 10.7472H45.8231V13.9031H32.65V18.0821C32.65 19.7663 34.0471 21.1515 35.7557 21.1515H45.8231V24.3074H31.9154C28.8496 24.3074 26.3347 21.8283 26.3347 18.8062V6.35568C26.3347 3.33357 28.8496 0.854492 31.9154 0.854492Z" fill="white"/>
<path fill-rule="evenodd" clip-rule="evenodd" d="M54.2221 0.854492H68.13V4.0104H58.0623C56.3538 4.0104 54.9486 5.38766 54.9486 7.07973V18.0821C54.9486 19.7663 56.3458 21.1515 58.0623 21.1515H68.13V24.3074H54.2221C51.1483 24.3074 48.6414 21.8283 48.6414 18.8062V6.35568C48.6414 3.33357 51.1483 0.854492 54.2221 0.854492Z" fill="white"/>
<path fill-rule="evenodd" clip-rule="evenodd" d="M23.5164 0.854492H0.626648V4.0104H8.92187V24.2995H15.2371V7.07975C15.2371 5.39555 16.6343 4.01827 18.3428 4.0104H23.5323V0.854492H23.5164Z" fill="white"/>
</g>
</svg>
