<svg width="183" height="20" viewBox="0 0 183 20" fill="none" xmlns="http://www.w3.org/2000/svg">
<path d="M0.230774 0.210876C0.466861 1.12581 0.938346 1.95943 1.59624 2.62514C2.25414 3.29085 3.07445 3.76435 3.97193 3.99644H9.81348L10.1128 4.11662V19.1824H13.7577V4.13847L14.0891 4.01829H19.936C20.8305 3.77996 21.6476 3.30436 22.3045 2.63962C22.9615 1.97488 23.435 1.14458 23.6771 0.232726V0.194488H0.230774V0.210876ZM127.756 0.189025H124.122V19.2261H140.765C141.553 18.9142 142.255 18.4095 142.808 17.7562C143.362 17.1029 143.75 16.321 143.939 15.4788H127.745L127.756 0.189025ZM99.7883 3.93635C101.723 3.3901 103.348 1.84965 103.738 0.1781L83.3753 0.210876V11.4365H100.034V15.3859H86.9615C85.9649 15.65 85.0345 16.1274 84.232 16.7866C83.4295 17.4458 82.7731 18.2717 82.3064 19.2097H103.626V7.70007H86.9722V3.93635H99.7883ZM161.876 19.2152H165.488V11.5566H178.625V19.2152H182.233V7.73284L161.876 7.71099V19.2152ZM45.8462 3.98005H59.7419C60.6522 3.75622 61.4849 3.2813 62.1493 2.60704C62.8137 1.93278 63.2843 1.08505 63.5098 0.15625L42.0783 0.15625C42.3059 1.08398 42.7772 1.93051 43.4413 2.60442C44.1053 3.27832 44.9369 3.75399 45.8462 3.98005ZM45.8462 11.502H59.7419C60.6517 11.2771 61.4838 10.8018 62.1481 10.1277C62.8123 9.45361 63.2832 8.60648 63.5098 7.67822H42.0783C42.307 8.60541 42.7787 9.45135 43.4425 10.1251C44.1064 10.7988 44.9374 11.2749 45.8462 11.502ZM45.8462 19.2261H59.7419C60.6517 19.0012 61.4838 18.5259 62.1481 17.8518C62.8123 17.1777 63.2832 16.3306 63.5098 15.4023H42.0783C42.3065 16.3298 42.778 17.176 43.4419 17.8498C44.1059 18.5236 44.9372 18.9995 45.8462 19.2261ZM165.088 3.99098H178.983C179.894 3.76747 180.728 3.29275 181.393 2.61852C182.059 1.94429 182.53 1.09639 182.757 0.167175H161.32C161.546 1.09544 162.017 1.94257 162.681 2.61665C163.346 3.29073 164.178 3.76603 165.088 3.99098Z" fill="white"/>
</svg>
