<svg width="163" height="44" viewBox="0 0 163 44" fill="none" xmlns="http://www.w3.org/2000/svg">
<g clip-path="url(#clip0_593_7568)">
<path d="M149.891 23.0322L152.427 16.4728L154.949 23.0322H149.891ZM155.052 12.7558H149.802L142.459 30.5392H147.015L148.682 26.1954H156.173L157.854 30.5392H162.411L155.052 12.7558ZM117.979 27.4489C115.015 27.4489 112.611 24.8106 112.611 21.5454C112.611 18.2803 115.015 15.6419 117.979 15.6419C120.943 15.6419 123.347 18.2949 123.347 21.5454C123.347 24.796 120.943 27.4489 117.979 27.4489ZM117.979 12.1436C112.729 12.1436 108.482 16.3562 108.482 21.5454C108.482 26.7347 112.744 30.9327 117.994 30.9327C123.243 30.9327 127.491 26.7201 127.491 21.5454C127.476 16.3562 123.229 12.1436 117.979 12.1436ZM80.463 27.4489C77.4989 27.4489 75.0951 24.8106 75.0951 21.5454C75.0951 18.2803 77.4989 15.6419 80.463 15.6419C83.4271 15.6419 85.8308 18.2949 85.8308 21.5454C85.8308 24.796 83.4271 27.4489 80.463 27.4489ZM80.463 12.1436C75.2131 12.1436 70.966 16.3562 70.966 21.5454C70.966 26.7347 75.2279 30.9327 80.4777 30.9327C85.7276 30.9327 89.9747 26.7201 89.9747 21.5454C89.9747 16.3562 85.7128 12.1436 80.463 12.1436ZM103.955 12.7558L99.2946 19.9566L94.6347 12.7558H90.0926L97.3038 23.9068V30.5392H101.315V23.9068L108.526 12.7558H103.955ZM143.402 12.7558H128.021V16.1667H133.714V30.5392H137.725V16.1667H143.402V12.7558ZM54.7298 16.1667H60.4368V30.5392H64.4479V16.1667H70.1255V12.7558H54.7298V16.1667Z" fill="white"/>
<path d="M18.3937 22.0703C18.3937 21.8954 18.3937 21.735 18.3937 21.5747C13.719 20.8896 10.3715 19.0092 10.3715 16.8081C10.3715 16.7061 10.3715 16.6041 10.3862 16.5166C9.19171 17.9305 8.51337 19.5777 8.51337 21.3269C8.51337 26.3266 14.0582 30.4226 21.1219 30.8599C19.544 29.6501 18.3937 26.1663 18.3937 22.0703Z" fill="white"/>
<path d="M22.3459 15.2773C21.2841 15.2773 20.3846 16.8953 20.0306 19.1839C20.768 19.2567 21.5496 19.2859 22.3459 19.2859C23.1422 19.2859 23.9238 19.2422 24.6611 19.1839C24.3072 16.9099 23.4077 15.2773 22.3459 15.2773Z" fill="white"/>
<path d="M18.6149 19.0237C19.1605 15.4379 20.6204 12.8578 22.3606 12.8578C24.0859 12.8578 25.5606 15.4379 26.0915 19.0237C29.3801 18.5135 31.6806 17.362 31.6806 16.0209C31.6806 14.2134 27.5072 12.7412 22.3606 12.7412C17.2139 12.7412 13.0406 14.2134 13.0406 16.0209C13.0259 17.362 15.3264 18.5135 18.6149 19.0237Z" fill="white"/>
<path d="M0.756531 0.351074V43.0312H43.9352V0.351074H0.756531ZM22.3459 32.0551C13.3945 32.0551 6.15387 27.4197 6.15387 21.7057C6.15387 17.6389 9.81108 14.1259 15.1494 12.435C17.155 11.7937 19.6472 11.4147 22.3459 11.4147C25.0445 11.4147 27.5367 11.7937 29.5423 12.435C34.8659 14.1259 38.5378 17.6534 38.5378 21.7057C38.5378 27.4197 31.2972 32.0551 22.3459 32.0551Z" fill="white"/>
<path d="M22.3459 21.8515C21.4905 21.8515 20.6647 21.8077 19.8536 21.7349C19.9126 25 21.0039 27.5946 22.3459 27.5946C23.6878 27.5946 24.7643 25 24.8381 21.7349C24.027 21.8077 23.2012 21.8515 22.3459 21.8515Z" fill="white"/>
<path d="M34.3203 16.8081C34.3203 19.0091 30.9728 20.8895 26.298 21.5746C26.298 21.7349 26.298 21.9099 26.298 22.0702C26.298 26.1662 25.1478 29.65 23.5551 30.8453C30.6188 30.4226 36.1636 26.312 36.1636 21.3122C36.1636 19.563 35.4853 17.9159 34.2908 16.502C34.3203 16.604 34.3203 16.706 34.3203 16.8081Z" fill="white"/>
</g>
<defs>
<clipPath id="clip0_593_7568">
<rect width="161.64" height="42.6801" fill="white" transform="translate(0.756531 0.351074)"/>
</clipPath>
</defs>
</svg>
