<svg width="85" height="84" viewBox="0 0 85 84" fill="none" xmlns="http://www.w3.org/2000/svg">
<path d="M52.9167 75.2585C59.4708 75.0918 64.0708 74.5627 67.5 72.896V79.5002C67.5 80.6052 67.061 81.665 66.2796 82.4464C65.4982 83.2278 64.4384 83.6668 63.3333 83.6668H57.0833C55.9783 83.6668 54.9185 83.2278 54.1371 82.4464C53.3557 81.665 52.9167 80.6052 52.9167 79.5002V75.2585ZM17.5 72.896C20.9292 74.5627 25.5292 75.0918 32.0833 75.2585V79.5002C32.0833 80.6052 31.6443 81.665 30.8629 82.4464C30.0815 83.2278 29.0217 83.6668 27.9167 83.6668H21.6667C20.5616 83.6668 19.5018 83.2278 18.7204 82.4464C17.939 81.665 17.5 80.6052 17.5 79.5002V72.896Z" fill="url(#paint0_linear_29_624)"/>
<path opacity="0.5" fill-rule="evenodd" clip-rule="evenodd" d="M14.05 5.21683C18.9292 0.333496 26.7875 0.333496 42.5 0.333496C58.2125 0.333496 66.0708 0.333496 70.95 5.21683C75.3833 9.646 75.7917 16.5252 75.8334 29.5002V46.1668C75.7917 59.1418 75.3833 66.021 70.95 70.4502C69.9462 71.4542 68.7798 72.2812 67.5 72.896C64.0709 74.5627 59.4709 75.0918 52.9167 75.2585C49.8875 75.3335 46.4417 75.3335 42.5 75.3335C38.5584 75.3335 35.1125 75.3335 32.0834 75.2585C25.5292 75.0918 20.9292 74.5627 17.5 72.896C16.2203 72.2812 15.0538 71.4542 14.05 70.4502C9.61669 66.021 9.20419 59.1418 9.16669 46.1668V29.5002C9.20835 16.5252 9.61669 9.646 14.05 5.21683Z" fill="url(#paint1_linear_29_624)"/>
<path d="M66.4583 58.667C66.4583 57.8382 66.1291 57.0433 65.5431 56.4573C64.957 55.8712 64.1621 55.542 63.3333 55.542H57.0833C56.2545 55.542 55.4597 55.8712 54.8736 56.4573C54.2876 57.0433 53.9583 57.8382 53.9583 58.667C53.9583 59.4958 54.2876 60.2906 54.8736 60.8767C55.4597 61.4628 56.2545 61.792 57.0833 61.792H63.3333C64.1621 61.792 64.957 61.4628 65.5431 60.8767C66.1291 60.2906 66.4583 59.4958 66.4583 58.667ZM18.5417 58.667C18.5417 57.8382 18.8709 57.0433 19.457 56.4573C20.043 55.8712 20.8379 55.542 21.6667 55.542H27.9167C28.7455 55.542 29.5403 55.8712 30.1264 56.4573C30.7124 57.0433 31.0417 57.8382 31.0417 58.667C31.0417 59.4958 30.7124 60.2906 30.1264 60.8767C29.5403 61.4628 28.7455 61.792 27.9167 61.792H21.6667C20.8379 61.792 20.043 61.4628 19.457 60.8767C18.8709 60.2906 18.5417 59.4958 18.5417 58.667ZM15.4167 31.5837C15.4167 37.4753 15.4167 40.4212 17.25 42.2503C19.0792 44.0837 22.025 44.0837 27.9167 44.0837H57.0833C62.975 44.0837 65.9208 44.0837 67.75 42.2503C69.5833 40.4212 69.5833 37.4753 69.5833 31.5837V21.167C69.5833 15.2753 69.5833 12.3295 67.75 10.5003C65.925 8.66699 62.9792 8.66699 57.0833 8.66699H27.9167C22.025 8.66699 19.0792 8.66699 17.25 10.5003C15.4167 12.3253 15.4167 15.2712 15.4167 21.167V31.5837ZM2.50001 41.167L9.16668 46.167V29.5003H5.00001C3.89494 29.5003 2.83513 29.9393 2.05373 30.7207C1.27233 31.5021 0.833344 32.5619 0.833344 33.667V37.8337C0.833344 38.4805 0.983948 39.1185 1.27323 39.697C1.56251 40.2756 1.98253 40.7789 2.50001 41.167ZM80 29.5003H75.8292L75.8333 46.167L82.5 41.167C83.0175 40.7789 83.4375 40.2756 83.7268 39.697C84.0161 39.1185 84.1667 38.4805 84.1667 37.8337V33.667C84.1667 32.5619 83.7277 31.5021 82.9463 30.7207C82.1649 29.9393 81.1051 29.5003 80 29.5003Z" fill="url(#paint2_linear_29_624)"/>
<defs>
<linearGradient id="paint0_linear_29_624" x1="17.5" y1="78.2814" x2="67.5" y2="78.2814" gradientUnits="userSpaceOnUse">
<stop stop-color="#001F8F" stop-opacity="0.72"/>
<stop offset="0.817708" stop-color="#00C7F3"/>
</linearGradient>
<linearGradient id="paint1_linear_29_624" x1="9.16669" y1="37.8335" x2="75.8334" y2="37.8335" gradientUnits="userSpaceOnUse">
<stop stop-color="#001F8F" stop-opacity="0.72"/>
<stop offset="0.817708" stop-color="#00C7F3"/>
</linearGradient>
<linearGradient id="paint2_linear_29_624" x1="0.833344" y1="35.2295" x2="84.1667" y2="35.2295" gradientUnits="userSpaceOnUse">
<stop stop-color="#001F8F" stop-opacity="0.72"/>
<stop offset="0.817708" stop-color="#00C7F3"/>
</linearGradient>
</defs>
</svg>
