<svg width="89" height="74" viewBox="0 0 89 74" fill="none" xmlns="http://www.w3.org/2000/svg">
<path d="M16.4584 17.1665C15.6296 17.1665 14.8347 17.4957 14.2487 18.0818C13.6626 18.6678 13.3334 19.4627 13.3334 20.2915C13.3334 21.1203 13.6626 21.9152 14.2487 22.5012C14.8347 23.0873 15.6296 23.4165 16.4584 23.4165H33.125C33.9538 23.4165 34.7487 23.0873 35.3347 22.5012C35.9208 21.9152 36.25 21.1203 36.25 20.2915C36.25 19.4627 35.9208 18.6678 35.3347 18.0818C34.7487 17.4957 33.9538 17.1665 33.125 17.1665H16.4584Z" fill="url(#paint0_linear_29_619)"/>
<path fill-rule="evenodd" clip-rule="evenodd" d="M80.7834 21.3502C80.525 21.3335 80.2417 21.3335 79.95 21.3335H68.3959C58.9334 21.3335 50.8334 28.5668 50.8334 38.0002C50.8334 47.4335 58.9334 54.6668 68.3959 54.6668H79.95C80.2417 54.6668 80.525 54.6668 80.7834 54.6502C84.6292 54.4168 88.0292 51.496 88.3167 47.4127C88.3334 47.146 88.3334 46.8585 88.3334 46.5918V29.4085C88.3334 29.1418 88.3334 28.8543 88.3167 28.5877C88.0292 24.5043 84.6292 21.5877 80.7834 21.3502ZM67.3792 42.446C69.8125 42.446 71.7875 40.4543 71.7875 38.0002C71.7875 35.5418 69.8125 33.5543 67.3792 33.5543C64.9417 33.5543 62.9625 35.546 62.9625 38.0002C62.9625 40.4585 64.9417 42.446 67.3792 42.446Z" fill="url(#paint1_linear_29_619)"/>
<path opacity="0.5" d="M80.5834 21.3417C80.5834 16.4208 80.4 11.1417 77.2584 7.3625C76.9512 6.99228 76.6273 6.63635 76.2875 6.29583C73.1667 3.17917 69.2125 1.79583 64.3292 1.1375C59.5792 0.5 53.5167 0.5 45.8584 0.5H37.0584C29.4 0.5 23.3334 0.5 18.5834 1.1375C13.7 1.79583 9.74587 3.17917 6.62504 6.29583C3.50837 9.41667 2.12504 13.3708 1.46671 18.2542C0.833374 23.0042 0.833374 29.0667 0.833374 36.725V37.1917C0.833374 44.85 0.833375 50.9167 1.47087 55.6625C2.12921 60.5458 3.51254 64.5 6.62921 67.6208C9.75004 70.7375 13.7042 72.1208 18.5875 72.7792C23.3375 73.4167 29.4 73.4167 37.0584 73.4167H45.8584C53.5167 73.4167 59.5834 73.4167 64.3292 72.7792C69.2125 72.1208 73.1667 70.7375 76.2875 67.6208C77.1177 66.7882 77.8527 65.8658 78.4792 64.8708C80.3542 61.8708 80.5792 58.1958 80.5792 54.6625L79.9542 54.6667H68.3959C58.9334 54.6667 50.8334 47.4333 50.8334 38C50.8334 28.5667 58.9334 21.3333 68.3959 21.3333H79.95C80.1667 21.3333 80.3834 21.3333 80.5834 21.3417Z" fill="url(#paint2_linear_29_619)"/>
<defs>
<linearGradient id="paint0_linear_29_619" x1="13.3334" y1="20.2915" x2="36.25" y2="20.2915" gradientUnits="userSpaceOnUse">
<stop stop-color="#001F8F" stop-opacity="0.72"/>
<stop offset="0.817708" stop-color="#00C7F3"/>
</linearGradient>
<linearGradient id="paint1_linear_29_619" x1="50.8334" y1="38.0002" x2="88.3334" y2="38.0002" gradientUnits="userSpaceOnUse">
<stop stop-color="#001F8F" stop-opacity="0.72"/>
<stop offset="0.817708" stop-color="#00C7F3"/>
</linearGradient>
<linearGradient id="paint2_linear_29_619" x1="0.833374" y1="36.9583" x2="80.5834" y2="36.9583" gradientUnits="userSpaceOnUse">
<stop stop-color="#001F8F" stop-opacity="0.72"/>
<stop offset="0.817708" stop-color="#00C7F3"/>
</linearGradient>
</defs>
</svg>
